<?xml version="1.0" encoding="utf-8"?>
<!-- Generator: Adobe Illustrator 19.0.0, SVG Export Plug-In . SVG Version: 6.00 Build 0)  -->
<svg version="1.1" id="Layer_1" xmlns="http://www.w3.org/2000/svg" xmlns:xlink="http://www.w3.org/1999/xlink" x="0px" y="0px"
	 viewBox="0 0 300 300" style="enable-background:new 0 0 300 300;" xml:space="preserve">
<style type="text/css">
	.st0{fill:url(#XMLID_3_);}
	.st1{fill:url(#XMLID_5_);}
	.st2{fill:url(#XMLID_6_);}
	.st3{fill:#A7A9AC;}
</style>
<linearGradient id="XMLID_3_" gradientUnits="userSpaceOnUse" x1="138.314" y1="59.9181" x2="138.314" y2="159.5768">
	<stop  offset="0" style="stop-color:#F1F2F2"/>
	<stop  offset="1" style="stop-color:#E6E7E8"/>
</linearGradient>
<path id="XMLID_1_" class="st0" d="M169.7,159.6h-62.8c-5.4,0-9.7-4.4-9.7-9.7V69.6c0-5.4,4.4-9.7,9.7-9.7h62.8
	c5.4,0,9.7,4.4,9.7,9.7v80.2C179.4,155.2,175.1,159.6,169.7,159.6z"/>
<linearGradient id="XMLID_5_" gradientUnits="userSpaceOnUse" x1="138.314" y1="59.9181" x2="138.314" y2="73.7481">
	<stop  offset="0" style="stop-color:#FBB040"/>
	<stop  offset="1" style="stop-color:#F7941E"/>
</linearGradient>
<path id="XMLID_11_" class="st1" d="M179.4,69.6v4.1H97.2v-4.1c0-5.4,4.4-9.7,9.7-9.7h62.8C175.1,59.9,179.4,64.3,179.4,69.6z"/>
<linearGradient id="XMLID_6_" gradientUnits="userSpaceOnUse" x1="139.1057" y1="16.3383" x2="139.1057" y2="55.3017">
	<stop  offset="0" style="stop-color:#BCBEC0"/>
	<stop  offset="0.5918" style="stop-color:#BABCBF"/>
	<stop  offset="0.8047" style="stop-color:#B5B7B9"/>
	<stop  offset="0.9562" style="stop-color:#ABADB0"/>
	<stop  offset="1" style="stop-color:#A7A9AC"/>
</linearGradient>
<polygon id="XMLID_92_" class="st2" points="156.8,43.3 145.6,43.3 145.6,55.3 132.6,55.3 132.6,43.3 121.4,43.3 139.1,16.3 "/>
<g id="XMLID_10_">
	<path id="XMLID_14_" class="st3" d="M150.7,95.2c0.1,0.1,1.1,0.2,2.5,0.3c0.3,1.2,0.9,2.3,1.6,3.2c-0.8,1.1-1.4,2-1.5,2.1
		c-0.2,0.4,1.1,1.7,2,1.8c0.1,0,1-0.7,2.1-1.6c1,0.6,2.1,1,3.3,1.1c0.2,1.4,0.4,2.5,0.4,2.6c0.1,0.4,2,0.4,2.7-0.1
		c0.1-0.1,0.2-1.2,0.3-2.7c1.2-0.3,2.3-0.9,3.3-1.6c1.3,0.9,2.2,1.5,2.4,1.5c0.4,0.1,1.8-2,1.8-2s-0.8-0.9-2-2.1
		c0.6-1,1-2.1,1.1-3.3c1.5-0.3,2.6-0.5,2.8-0.6c0.4-0.3-0.1-2.7-0.1-2.7s-1.2-0.1-2.8-0.1c-0.3-1.2-0.8-2.3-1.6-3.2
		c0.8-1.2,1.5-2.2,1.5-2.3c0.1-0.4-2-1.8-2-1.8s-0.9,0.8-2,1.9c-1-0.6-2.2-1-3.4-1.2c-0.3-1.4-0.5-2.5-0.6-2.6
		c-0.3-0.4-2.7,0.1-2.7,0.1s0,1.1-0.1,2.7c-1.2,0.3-2.2,0.8-3.1,1.5c-1.1-0.8-1.9-1.4-2-1.4c-0.4-0.2-1.7,1.1-1.8,2
		c0,0.1,0.6,0.9,1.5,2c-0.6,1-1,2.2-1.2,3.5c-1.3,0.2-2.3,0.4-2.5,0.4C150.2,92.5,150.1,94.4,150.7,95.2z M161.7,88.4
		c2.6-0.1,4.9,1.9,5,4.5c0.1,2.6-1.9,4.9-4.5,5c-2.6,0.1-4.9-1.9-5-4.5C157,90.8,159.1,88.6,161.7,88.4z"/>
</g>
<path id="XMLID_25_" class="st3" d="M121,91.4c0,0.2,1.3,0.8,3.1,1.7c-0.2,1.7-0.1,3.4,0.4,4.9c-1.6,1-2.8,1.8-3,1.9
	c-0.4,0.4,0.6,2.8,1.7,3.4c0.1,0.1,1.6-0.4,3.5-1c1,1.3,2.2,2.3,3.7,3.2c-0.5,1.9-0.8,3.4-0.8,3.5c0,0.5,2.4,1.5,3.6,1.2
	c0.2,0,0.9-1.4,1.8-3.3c1.7,0.2,3.4,0.1,5-0.4c1.2,1.8,2.1,3.1,2.3,3.2c0.5,0.3,3.4-1.7,3.4-1.7s-0.6-1.6-1.4-3.7
	c1.2-1,2.3-2.2,3.1-3.6c2.1,0.4,3.6,0.7,3.8,0.6c0.6-0.2,1.2-3.6,1.2-3.6s-1.5-0.7-3.6-1.6c0.2-1.7,0.1-3.3-0.4-4.9
	c1.7-1.1,3-2,3.1-2.2c0.3-0.5-1.7-3.4-1.7-3.4s-1.5,0.6-3.5,1.4c-1-1.3-2.3-2.4-3.8-3.3c0.4-2,0.6-3.4,0.6-3.6
	c-0.2-0.6-3.6-1.2-3.6-1.2s-0.6,1.4-1.5,3.4c-1.6-0.2-3.3-0.1-4.8,0.3c-1-1.6-1.7-2.7-1.8-2.9c-0.4-0.4-2.8,0.6-3.4,1.7
	c-0.1,0.1,0.3,1.5,1,3.3c-1.3,1-2.5,2.3-3.3,3.8c-1.8-0.4-3.2-0.7-3.3-0.7C121.7,87.9,120.7,90.2,121,91.4z M139.5,85.5
	c5.1,1.8,7.8,7.3,6,12.4c-1.8,5.1-7.3,7.8-12.4,6c-5.1-1.8-7.8-7.3-6-12.4C128.9,86.5,134.5,83.8,139.5,85.5z"/>
<circle id="XMLID_4_" class="st3" cx="136.4" cy="94.7" r="6.9"/>
<path id="XMLID_33_" class="st3" d="M102.3,87.3c0.1,0.1,0.9,0.2,2.1,0.3c0.2,1,0.6,1.9,1.2,2.7c-0.7,0.9-1.3,1.6-1.3,1.7
	c-0.1,0.3,0.9,1.5,1.6,1.6c0.1,0,0.8-0.5,1.8-1.3c0.8,0.5,1.7,0.9,2.7,1c0.1,1.2,0.2,2.1,0.3,2.2c0.1,0.3,1.7,0.4,2.3,0
	c0.1-0.1,0.2-1,0.3-2.2c1-0.2,1.9-0.7,2.8-1.2c1,0.8,1.8,1.3,1.9,1.3c0.4,0.1,1.6-1.6,1.6-1.6S118.9,91,118,90
	c0.5-0.8,0.9-1.7,1-2.7c1.3-0.2,2.2-0.3,2.3-0.4c0.3-0.2,0-2.3,0-2.3s-1-0.1-2.3-0.2c-0.2-1-0.6-1.9-1.2-2.7c0.7-1,1.3-1.8,1.3-1.9
	c0.1-0.4-1.6-1.6-1.6-1.6s-0.7,0.6-1.7,1.5c-0.8-0.5-1.8-0.9-2.8-1.1c-0.2-1.2-0.3-2.1-0.4-2.2c-0.2-0.3-2.3,0-2.3,0
	s-0.1,0.9-0.2,2.2c-1,0.2-1.9,0.6-2.6,1.2c-0.9-0.7-1.5-1.2-1.6-1.2c-0.3-0.1-1.5,0.9-1.6,1.6c0,0.1,0.5,0.8,1.2,1.7
	c-0.6,0.8-0.9,1.8-1.1,2.8c-1.1,0.1-1.9,0.2-2,0.3C101.9,85.1,101.8,86.7,102.3,87.3z M111.6,80.2c3.2,0,5.9,2.6,5.9,5.8
	c0,3.2-2.6,5.9-5.8,5.9c-3.2,0-5.9-2.6-5.9-5.8C105.7,82.8,108.3,80.2,111.6,80.2z"/>
<g id="XMLID_29_">
	<path id="XMLID_30_" class="st3" d="M127.7,108.1c0,0-1.7-2.7-3-3c0,0-2.4,2.7-4.7-1.2c0,0-2.7,0-4.3,1.3c0,0,1.8,5-3.1,3.6
		c0,0-1,3.1-0.9,4.4c0,0,4.4,1.4,1.4,4.4c0,0,1.8,2.6,3.5,3c0,0,3.1-2.6,4.3,1.1c0,0,2,0.2,4.3-1.3c0,0-1.4-3,3-3.5
		c0,0,1.3-1.8,1-4.1C129.1,112.6,125.8,112.4,127.7,108.1z M121.6,116.7c-2.2,0.7-4.6-0.5-5.2-2.7c-0.7-2.2,0.5-4.6,2.7-5.2
		s4.6,0.5,5.2,2.7C125,113.7,123.8,116,121.6,116.7z"/>
</g>
<g id="XMLID_31_">
	<path id="XMLID_127_" class="st3" d="M141.7,144.8c-0.8,0-1.3-0.5-1.3-1.2c0-0.8,0.5-1.3,1.3-1.4c0.6,0,1.4,0.4,1.3,1.3
		C143,144.2,142.5,144.8,141.7,144.8z M141.7,144.4c0.5,0,0.9-0.4,0.9-0.9c0-0.4-0.4-0.9-0.8-0.9c-0.4,0-0.9,0.4-0.9,0.9
		C140.8,143.9,141.2,144.4,141.7,144.4z"/>
	<path id="XMLID_116_" class="st3" d="M141.7,144.4c-0.5,0-0.9-0.5-0.9-0.9c0-0.5,0.5-0.9,0.9-0.9c0.5,0,0.9,0.5,0.8,0.9
		C142.6,144,142.2,144.4,141.7,144.4z"/>
	<g id="XMLID_27_">
		<path id="XMLID_143_" class="st3" d="M138.3,118c1.1,0,2.1,0,3.2,0c0.6,0,1,0.3,1.3,0.8c0.3,0.6,0.2,1.3-0.4,1.7
			c-0.1,0.1-0.2,0.2-0.2,0.4c0,1.5,0,3.1,0,4.6c0,1.9,0,3.9,0,5.8c0,0.1,0.1,0.2,0.1,0.3c0.3,0.5,0.6,0.9,0.9,1.4
			c0.6,0.9,1.2,1.8,1.9,2.7c0.4,0.6,0.7,1.1,1.1,1.7c0.1,0.2,0.3,0.4,0.4,0.6c0.3,0.5,0.7,1.1,1,1.6c0.2,0.3,0.4,0.6,0.6,0.8
			c0.4,0.6,0.8,1.3,1.2,1.9c0.4,0.6,0.8,1.2,1.2,1.8c0.3,0.5,0.6,1,0.9,1.4c0.2,0.3,0.4,0.6,0.6,0.9c0.5,0.8,1.1,1.6,1.2,2.6
			c0.1,0.5,0,1-0.1,1.5c-0.3,0.9-0.9,1.5-1.8,1.9c-0.3,0.1-0.6,0.1-0.9,0.1c-0.8,0-1.6,0-2.4,0c-0.6,0-1.3,0-1.9,0
			c-0.3,0-0.5,0-0.8,0c-4.3,0-8.5,0-12.8,0c-2.1,0-4.3,0-6.4,0c-0.6,0-1.1-0.1-1.6-0.5c-0.8-0.5-1.2-1.3-1.4-2.2
			c-0.1-1,0.3-1.9,0.9-2.8c0.3-0.4,0.5-0.9,0.8-1.3c0.3-0.5,0.6-0.9,0.9-1.4c0.4-0.6,0.7-1.2,1.1-1.8c0.4-0.6,0.8-1.3,1.3-1.9
			c0.4-0.7,0.9-1.3,1.3-2c0.3-0.5,0.7-0.9,1-1.4c0.3-0.4,0.6-0.8,0.9-1.3c0.4-0.6,0.8-1.2,1.2-1.9c0.5-0.8,1-1.6,1.6-2.4
			c0.3-0.4,0.3-0.7,0.3-1.1c0-1.6,0-3.2,0-4.8c0-1.7,0-3.4,0-5c0-0.1,0-0.2-0.2-0.3c-0.6-0.4-0.8-1-0.5-1.7c0.2-0.5,0.8-0.9,1.3-0.9
			C136.2,118,137.3,118,138.3,118z M135.6,119.7c0,0.1,0,0.1,0,0.2c0,3.9,0,7.7,0,11.6c0,0.1,0,0.2-0.1,0.3
			c-0.1,0.2-0.2,0.4-0.4,0.6c-0.4,0.6-0.8,1.1-1.2,1.7c-0.4,0.6-0.8,1.2-1.2,1.8c-0.3,0.5-0.7,1-1.1,1.5c-0.5,0.7-0.9,1.3-1.4,2
			c-0.2,0.3-0.5,0.7-0.7,1c-0.3,0.4-0.6,0.9-0.9,1.4c-0.2,0.3-0.4,0.6-0.6,0.9c-0.3,0.5-0.6,0.9-0.9,1.4c-0.4,0.6-0.8,1.2-1.2,1.9
			c-0.4,0.7-0.9,1.4-1.3,2.1c-0.2,0.3-0.4,0.7-0.5,1.1c-0.3,1.2,0.6,2.3,1.8,2.3c8,0,16,0,24.1,0c0.5,0,1-0.1,1.3-0.5
			c0.6-0.6,0.9-1.4,0.5-2.2c-0.3-0.6-0.7-1.2-1-1.8c-0.5-0.8-1-1.6-1.5-2.4c-0.5-0.8-1-1.5-1.5-2.2c-0.5-0.8-1.1-1.6-1.6-2.4
			c-0.4-0.7-0.9-1.3-1.3-2c-0.4-0.7-0.9-1.3-1.4-2c-0.1-0.1-0.2-0.3-0.2-0.4c-0.2-0.3-0.4-0.6-0.6-0.9c-0.3-0.4-0.6-0.9-0.8-1.3
			c-0.3-0.5-0.7-1-1-1.5c-0.1-0.1-0.1-0.3-0.1-0.4c0-1.6,0-3.2,0-4.8c0-2.2,0-4.5,0-6.7c0-0.1,0-0.2,0-0.2c0.2,0,0.4,0,0.5-0.1
			c0.1,0,0.2-0.1,0.2-0.2c0-0.1-0.1-0.2-0.2-0.2c-0.1,0-0.1,0-0.2,0c-2,0-4,0-6,0c-0.1,0-0.2,0-0.2,0c-0.1,0.1-0.2,0.1-0.3,0.2
			c0,0.1,0.1,0.2,0.2,0.3C135.2,119.6,135.4,119.7,135.6,119.7z"/>
		<path id="XMLID_133_" class="st3" d="M138.3,150.6c-3.9,0-7.8,0-11.7,0c-0.2,0-0.4,0-0.6,0c-0.6-0.1-1-0.8-0.9-1.4
			c0.1-0.2,0.2-0.4,0.3-0.6c0.4-0.7,0.8-1.4,1.2-2.1c0.2-0.3,0.4-0.6,0.6-0.9c0.3-0.5,0.6-1,0.9-1.5c0.2-0.2,0.3-0.5,0.5-0.7
			c0.5-0.7,0.9-1.4,1.4-2.1c0.5-0.8,1.1-1.6,1.7-2.5c0.1-0.1,0.2-0.3,0.3-0.4c0,0,0.1-0.1,0.2-0.1c0.1,0,0.2,0,0.3,0
			c3.9,0,7.8,0,11.7,0c0.2,0,0.3,0,0.4,0.2c0.4,0.6,0.8,1.2,1.2,1.8c0.4,0.6,0.8,1.3,1.2,1.9c0.4,0.6,0.9,1.3,1.3,1.9
			c0.3,0.5,0.6,0.9,0.8,1.4c0.2,0.3,0.3,0.5,0.5,0.8c0.4,0.7,0.9,1.5,1.3,2.2c0.1,0.2,0.3,0.5,0.4,0.8c0.2,0.6-0.1,1.1-0.6,1.4
			c-0.2,0.1-0.4,0.1-0.6,0.1c-2.5,0-5,0-7.5,0C141.3,150.6,139.8,150.6,138.3,150.6C138.3,150.6,138.3,150.6,138.3,150.6z
			 M136.8,141.4c0.1-1-0.9-1.8-1.8-1.7c-0.8,0.1-1.5,0.7-1.5,1.8c0,0.9,0.8,1.6,1.7,1.6C135.9,143.1,136.9,142.4,136.8,141.4z
			 M141.7,144.8c0.8,0,1.3-0.6,1.3-1.3c0-0.9-0.7-1.3-1.3-1.3c-0.8,0-1.3,0.5-1.3,1.4C140.4,144.3,140.9,144.8,141.7,144.8z
			 M139.1,139.4c-0.7,0-1.3,0.5-1.3,1.2c0,0.7,0.5,1.3,1.2,1.3c0.8,0,1.3-0.6,1.3-1.2C140.4,140,139.8,139.4,139.1,139.4z
			 M137,144.9c0,0.6,0.6,1.2,1.2,1.1c0.7-0.1,1-0.5,1.1-1.1c0-0.6-0.5-1.1-1.1-1.1C137.5,143.8,137,144.3,137,144.9z M140.1,148.2
			c0-0.4-0.4-0.9-0.9-0.9c-0.4,0-0.9,0.4-0.9,0.9c0,0.5,0.5,0.9,0.9,0.9C139.7,149.1,140.1,148.7,140.1,148.2z"/>
		<path id="XMLID_130_" class="st3" d="M136.8,141.4c0.1,1-0.9,1.7-1.6,1.7c-0.9,0-1.7-0.7-1.7-1.6c0-1.1,0.7-1.7,1.5-1.8
			C135.9,139.6,136.9,140.4,136.8,141.4z M136.2,141.4c0-0.6-0.4-1-1-1.1c-0.6-0.1-1.1,0.5-1.1,1c-0.1,0.6,0.5,1.1,0.9,1.2
			C135.7,142.5,136.1,142.1,136.2,141.4z"/>
		<path id="XMLID_124_" class="st3" d="M139.1,139.4c0.7,0,1.3,0.6,1.2,1.3c0,0.7-0.5,1.2-1.3,1.2c-0.7,0-1.2-0.6-1.2-1.3
			C137.9,139.9,138.5,139.4,139.1,139.4z M139.9,140.6c0-0.5-0.3-0.8-0.8-0.8c-0.4,0-0.8,0.4-0.7,0.8c0,0.4,0.4,0.8,0.9,0.8
			C139.6,141.4,139.9,141.1,139.9,140.6z"/>
		<path id="XMLID_121_" class="st3" d="M137,144.9c0-0.6,0.5-1.1,1.1-1.1c0.6,0,1.2,0.5,1.1,1.1c0,0.6-0.4,1-1.1,1.1
			C137.6,146.1,137,145.5,137,144.9z M138.1,145.6c0.5,0,0.7-0.3,0.7-0.7c0-0.4-0.4-0.7-0.7-0.7c-0.4,0-0.7,0.4-0.7,0.7
			C137.5,145.3,137.6,145.6,138.1,145.6z"/>
		<path id="XMLID_118_" class="st3" d="M140.1,148.2c0,0.5-0.4,0.9-0.8,0.9c-0.4,0-1-0.4-0.9-0.9c0-0.4,0.5-0.8,0.9-0.9
			C139.7,147.3,140.1,147.8,140.1,148.2z M138.7,148.2c0,0.3,0.2,0.5,0.5,0.6c0.3,0,0.6-0.2,0.6-0.5c0-0.3-0.2-0.6-0.6-0.6
			C139,147.6,138.7,147.9,138.7,148.2z"/>
		<path id="XMLID_117_" class="st3" d="M136.2,141.4c0,0.7-0.5,1.1-1.1,1c-0.5,0-1-0.6-0.9-1.2c0-0.5,0.5-1,1.1-1
			C135.8,140.4,136.2,140.8,136.2,141.4z"/>
		<path id="XMLID_115_" class="st3" d="M139.9,140.6c0,0.5-0.3,0.8-0.7,0.8c-0.5,0-0.8-0.3-0.9-0.8c0-0.4,0.3-0.8,0.7-0.8
			C139.6,139.8,139.9,140.1,139.9,140.6z"/>
		<path id="XMLID_114_" class="st3" d="M138.1,145.6c-0.6,0-0.6-0.3-0.7-0.7c0-0.4,0.3-0.7,0.7-0.7c0.4,0,0.7,0.3,0.7,0.7
			C138.9,145.3,138.6,145.6,138.1,145.6z"/>
		<path id="XMLID_113_" class="st3" d="M138.7,148.2c0-0.3,0.3-0.5,0.6-0.5c0.3,0,0.6,0.3,0.6,0.6c0,0.3-0.3,0.5-0.6,0.5
			C138.9,148.7,138.7,148.5,138.7,148.2z"/>
	</g>
</g>
</svg>
